{
  "accessors": [
    {
      "bufferView": 1,
      "componentType": 5126,
      "count": 5966,
      "max": [
        0.12298300117254257,
        0.00024900000425986946,
        0.12298300117254257
      ],
      "min": [
        -0.12298300117254257,
        -1.2278790473937988,
        -0.12298300117254257
      ],
      "type": "VEC3"
    },
    {
      "bufferView": 1,
      "byteOffset": 71592,
      "componentType": 5126,
      "count": 5966,
      "max": [
        0.99967312812805176,
        0.99783104658126831,
        0.9992099404335022
      ],
      "min": [
        -0.99967312812805176,
        -0.99783104658126831,
        -0.9992099404335022
      ],
      "type": "VEC3"
    },
    {
      "bufferView": 0,
      "componentType": 5125,
      "count": 35316,
      "max": [
        5965
      ],
      "min": [
        0
      ],
      "type": "SCALAR"
    },
    {
      "bufferView": 1,
      "byteOffset": 143184,
      "componentType": 5126,
      "count": 9974,
      "max": [
        0.079681999981403351,
        0.013000000268220901,
        0.084417998790740967
      ],
      "min": [
        -0.092248998582363129,
        -1.250715970993042,
        -0.084417998790740967
      ],
      "type": "VEC3"
    },
    {
      "bufferView": 1,
      "byteOffset": 262872,
      "componentType": 5126,
      "count": 9974,
      "max": [
        1,
        1,
        1
      ],
      "min": [
        -1,
        -1,
        -1
      ],
      "type": "VEC3"
    },
    {
      "bufferView": 0,
      "byteOffset": 141264,
      "componentType": 5125,
      "count": 59076,
      "max": [
        9973
      ],
      "min": [
        0
      ],
      "type": "SCALAR"
    },
    {
      "bufferView": 1,
      "byteOffset": 382560,
      "componentType": 5126,
      "count": 9976,
      "max": [
        0.092248998582363129,
        0.013000000268220901,
        0.083623997867107391
      ],
      "min": [
        -0.092248998582363129,
        -1.2528020143508911,
        -0.092249996960163116
      ],
      "type": "VEC3"
    },
    {
      "bufferView": 1,
      "byteOffset": 502272,
      "componentType": 5126,
      "count": 9976,
      "max": [
        1,
        1,
        1
      ],
      "min": [
        -1,
        -1,
        -1
      ],
      "type": "VEC3"
    },
    {
      "bufferView": 0,
      "byteOffset": 377568,
      "componentType": 5125,
      "count": 59076,
      "max": [
        9975
      ],
      "min": [
        0
      ],
      "type": "SCALAR"
    },
    {
      "bufferView": 1,
      "byteOffset": 621984,
      "componentType": 5126,
      "count": 6096,
      "max": [
        0.083623997867107391,
        0.013000000268220901,
        0.092248998582363129
      ],
      "min": [
        -0.083623997867107391,
        -1.2528020143508911,
        -0.092248998582363129
      ],
      "type": "VEC3"
    },
    {
      "bufferView": 1,
      "byteOffset": 695136,
      "componentType": 5126,
      "count": 6096,
      "max": [
        1,
        1,
        1
      ],
      "min": [
        -1,
        -1,
        -1
      ],
      "type": "VEC3"
    },
    {
      "bufferView": 0,
      "byteOffset": 613872,
      "componentType": 5125,
      "count": 36108,
      "max": [
        6095
      ],
      "min": [
        0
      ],
      "type": "SCALAR"
    },
    {
      "bufferView": 1,
      "byteOffset": 768288,
      "componentType": 5126,
      "count": 9926,
      "max": [
        0.12832100689411163,
        0.011390999890863895,
        0.11022800207138062
      ],
      "min": [
        -0.11065900325775146,
        -1.2517640590667725,
        -0.11762499809265137
      ],
      "type": "VEC3"
    },
    {
      "bufferView": 1,
      "byteOffset": 887400,
      "componentType": 5126,
      "count": 9926,
      "max": [
        0.9992099404335022,
        0.99783104658126831,
        1
      ],
      "min": [
        -0.9992099404335022,
        -0.99783104658126831,
        -1
      ],
      "type": "VEC3"
    },
    {
      "bufferView": 0,
      "byteOffset": 758304,
      "componentType": 5125,
      "count": 58752,
      "max": [
        9925
      ],
      "min": [
        0
      ],
      "type": "SCALAR"
    },
    {
      "bufferView": 1,
      "byteOffset": 1006512,
      "componentType": 5126,
      "count": 9924,
      "max": [
        0.11022800207138062,
        -0.11241400241851807,
        0.11065900325775146
      ],
      "min": [
        -0.11762499809265137,
        -1.2515850067138672,
        -0.12832100689411163
      ],
      "type": "VEC3"
    },
    {
      "bufferView": 1,
      "byteOffset": 1125600,
      "componentType": 5126,
      "count": 9924,
      "max": [
        1,
        0.99783104658126831,
        1
      ],
      "min": [
        -1,
        -0.99783104658126831,
        -1
      ],
      "type": "VEC3"
    },
    {
      "bufferView": 0,
      "byteOffset": 993312,
      "componentType": 5125,
      "count": 58752,
      "max": [
        9923
      ],
      "min": [
        0
      ],
      "type": "SCALAR"
    },
    {
      "bufferView": 1,
      "byteOffset": 1244688,
      "componentType": 5126,
      "count": 9990,
      "max": [
        0.11065900325775146,
        0.011946000158786774,
        0.11762499809265137
      ],
      "min": [
        -0.12832100689411163,
        -1.1798629760742188,
        -0.11022800207138062
      ],
      "type": "VEC3"
    },
    {
      "bufferView": 1,
      "byteOffset": 1364568,
      "componentType": 5126,
      "count": 9990,
      "max": [
        1,
        1,
        1
      ],
      "min": [
        -1,
        -1,
        -1
      ],
      "type": "VEC3"
    },
    {
      "bufferView": 0,
      "byteOffset": 1228320,
      "componentType": 5125,
      "count": 59148,
      "max": [
        9989
      ],
      "min": [
        0
      ],
      "type": "SCALAR"
    },
    {
      "bufferView": 1,
      "byteOffset": 1484448,
      "componentType": 5126,
      "count": 9918,
      "max": [
        0.11762499809265137,
        0.011946000158786774,
        0.12832100689411163
      ],
      "min": [
        -0.11022800207138062,
        -1.1895849704742432,
        -0.11065900325775146
      ],
      "type": "VEC3"
    },
    {
      "bufferView": 1,
      "byteOffset": 1603464,
      "componentType": 5126,
      "count": 9918,
      "max": [
        1,
        1,
        1
      ],
      "min": [
        -1,
        -1,
        -1
      ],
      "type": "VEC3"
    },
    {
      "bufferView": 0,
      "byteOffset": 1464912,
      "componentType": 5125,
      "count": 58716,
      "max": [
        9917
      ],
      "min": [
        0
      ],
      "type": "SCALAR"
    },
    {
      "bufferView": 1,
      "byteOffset": 1722480,
      "componentType": 5126,
      "count": 2518,
      "max": [
        0.10909999907016754,
        0.042192000895738602,
        0.1159370020031929
      ],
      "min": [
        -0.11022800207138062,
        -1.0271769762039185,
        -0.10435699671506882
      ],
      "type": "VEC3"
    },
    {
      "bufferView": 1,
      "byteOffset": 1752696,
      "componentType": 5126,
      "count": 2518,
      "max": [
        0.9992099404335022,
        0.99783104658126831,
        0.9992099404335022
      ],
      "min": [
        -0.9992099404335022,
        -0.99783104658126831,
        -0.9992099404335022
      ],
      "type": "VEC3"
    },
    {
      "bufferView": 0,
      "byteOffset": 1699776,
      "componentType": 5125,
      "count": 14904,
      "max": [
        2517
      ],
      "min": [
        0
      ],
      "type": "SCALAR"
    },
    {
      "bufferView": 1,
      "byteOffset": 1782912,
      "componentType": 5126,
      "count": 9918,
      "max": [
        0.10814300179481506,
        0.012000000104308128,
        0.12021499872207642
      ],
      "min": [
        -0.12655700743198395,
        -1.251816987991333,
        -0.12593500316143036
      ],
      "type": "VEC3"
    },
    {
      "bufferView": 1,
      "byteOffset": 1901928,
      "componentType": 5126,
      "count": 9918,
      "max": [
        1,
        1,
        1
      ],
      "min": [
        -1,
        -1,
        -1
      ],
      "type": "VEC3"
    },
    {
      "bufferView": 0,
      "byteOffset": 1759392,
      "componentType": 5125,
      "count": 58716,
      "max": [
        9917
      ],
      "min": [
        0
      ],
      "type": "SCALAR"
    },
    {
      "bufferView": 1,
      "byteOffset": 2020944,
      "componentType": 5126,
      "count": 9990,
      "max": [
        0.11562699824571609,
        0.012000000104308128,
        0.1202080026268959
      ],
      "min": [
        -0.12655700743198395,
        -1.2521339654922485,
        -0.10815499722957611
      ],
      "type": "VEC3"
    },
    {
      "bufferView": 1,
      "byteOffset": 2140824,
      "componentType": 5126,
      "count": 9990,
      "max": [
        1,
        1,
        1
      ],
      "min": [
        -1,
        -1,
        -1
      ],
      "type": "VEC3"
    },
    {
      "bufferView": 0,
      "byteOffset": 1994256,
      "componentType": 5125,
      "count": 59148,
      "max": [
        9989
      ],
      "min": [
        0
      ],
      "type": "SCALAR"
    },
    {
      "bufferView": 1,
      "byteOffset": 2260704,
      "componentType": 5126,
      "count": 9926,
      "max": [
        0.12021499872207642,
        -0.090706996619701385,
        0.12655700743198395
      ],
      "min": [
        -0.12593500316143036,
        -1.251816987991333,
        -0.11366400122642517
      ],
      "type": "VEC3"
    },
    {
      "bufferView": 1,
      "byteOffset": 2379816,
      "componentType": 5126,
      "count": 9926,
      "max": [
        1,
        0.99783104658126831,
        1
      ],
      "min": [
        -1,
        -0.99783104658126831,
        -1
      ],
      "type": "VEC3"
    },
    {
      "bufferView": 0,
      "byteOffset": 2230848,
      "componentType": 5125,
      "count": 58752,
      "max": [
        9925
      ],
      "min": [
        0
      ],
      "type": "SCALAR"
    },
    {
      "bufferView": 1,
      "byteOffset": 2498928,
      "componentType": 5126,
      "count": 9976,
      "max": [
        0.12655700743198395,
        0.01641399972140789,
        0.12593500316143036
      ],
      "min": [
        -0.099320001900196075,
        -1.251816987991333,
        -0.12021499872207642
      ],
      "type": "VEC3"
    },
    {
      "bufferView": 1,
      "byteOffset": 2618640,
      "componentType": 5126,
      "count": 9976,
      "max": [
        1,
        1,
        1
      ],
      "min": [
        -1,
        -1,
        -1
      ],
      "type": "VEC3"
    },
    {
      "bufferView": 0,
      "byteOffset": 2465856,
      "componentType": 5125,
      "count": 59076,
      "max": [
        9975
      ],
      "min": [
        0
      ],
      "type": "SCALAR"
    },
    {
      "bufferView": 1,
      "byteOffset": 2738352,
      "componentType": 5126,
      "count": 9928,
      "max": [
        0.12593500316143036,
        0.033291999250650406,
        0.10814300179481506
      ],
      "min": [
        -0.12021499872207642,
        -1.2497190237045288,
        -0.12655700743198395
      ],
      "type": "VEC3"
    },
    {
      "bufferView": 1,
      "byteOffset": 2857488,
      "componentType": 5126,
      "count": 9928,
      "max": [
        1,
        1,
        1
      ],
      "min": [
        -1,
        -1,
        -1
      ],
      "type": "VEC3"
    },
    {
      "bufferView": 0,
      "byteOffset": 2702160,
      "componentType": 5125,
      "count": 58788,
      "max": [
        9927
      ],
      "min": [
        0
      ],
      "type": "SCALAR"
    },
    {
      "bufferView": 1,
      "byteOffset": 2976624,
      "componentType": 5126,
      "count": 3250,
      "max": [
        0.10233700275421143,
        0.033677998930215836,
        0.093404002487659454
      ],
      "min": [
        -0.1202080026268959,
        -1.189816951751709,
        -0.12604199349880219
      ],
      "type": "VEC3"
    },
    {
      "bufferView": 1,
      "byteOffset": 3015624,
      "componentType": 5126,
      "count": 3250,
      "max": [
        1,
        1,
        1
      ],
      "min": [
        -1,
        -1,
        -1
      ],
      "type": "VEC3"
    },
    {
      "bufferView": 0,
      "byteOffset": 2937312,
      "componentType": 5125,
      "count": 19260,
      "max": [
        3249
      ],
      "min": [
        0
      ],
      "type": "SCALAR"
    },
    {
      "bufferView": 1,
      "byteOffset": 3054624,
      "componentType": 5126,
      "count": 9882,
      "max": [
        0.10338100045919418,
        0.046117998659610748,
        0.080701999366283417
      ],
      "min": [
        -0.10508599877357483,
        -1.2478779554367065,
        -0.10508599877357483
      ],
      "type": "VEC3"
    },
    {
      "bufferView": 1,
      "byteOffset": 3173208,
      "componentType": 5126,
      "count": 9882,
      "max": [
        1,
        1,
        1
      ],
      "min": [
        -1,
        -1,
        -1
      ],
      "type": "VEC3"
    },
    {
      "bufferView": 0,
      "byteOffset": 3014352,
      "componentType": 5125,
      "count": 58500,
      "max": [
        9881
      ],
      "min": [
        0
      ],
      "type": "SCALAR"
    },
    {
      "bufferView": 1,
      "byteOffset": 3291792,
      "componentType": 5126,
      "count": 9904,
      "max": [
        0.10508599877357483,
        0.0080000003799796104,
        0.10508599877357483
      ],
      "min": [
        -0.10508599877357483,
        -1.2246929407119751,
        -0.080701999366283417
      ],
      "type": "VEC3"
    },
    {
      "bufferView": 1,
      "byteOffset": 3410640,
      "componentType": 5126,
      "count": 9904,
      "max": [
        1,
        1,
        1
      ],
      "min": [
        -1,
        -1,
        -1
      ],
      "type": "VEC3"
    },
    {
      "bufferView": 0,
      "byteOffset": 3248352,
      "componentType": 5125,
      "count": 58644,
      "max": [
        9903
      ],
      "min": [
        0
      ],
      "type": "SCALAR"
    },
    {
      "bufferView": 1,
      "byteOffset": 3529488,
      "componentType": 5126,
      "count": 2218,
      "max": [
        0.10508599877357483,
        0.0080000003799796104,
        0.094539999961853027
      ],
      "min": [
        -0.076214000582695007,
        -1.2478779554367065,
        -0.080701999366283417
      ],
      "type": "VEC3"
    },
    {
      "bufferView": 1,
      "byteOffset": 3556104,
      "componentType": 5126,
      "count": 2218,
      "max": [
        1,
        1,
        1
      ],
      "min": [
        -1,
        -1,
        -1
      ],
      "type": "VEC3"
    },
    {
      "bufferView": 0,
      "byteOffset": 3482928,
      "componentType": 5125,
      "count": 13140,
      "max": [
        2217
      ],
      "min": [
        0
      ],
      "type": "SCALAR"
    }
  ],
  "asset": {
    "extras": {
      "author": "T-FLEX CAD ST (Free) (https://sketchfab.com/tflexcad)",
      "license": "CC-BY-4.0 (http://creativecommons.org/licenses/by/4.0/)",
      "source": "https://sketchfab.com/3d-models/human-dna-746f0754e7cb45a4b54840e1b858b01d",
      "title": "Human DNA"
    },
    "generator": "Sketchfab-10.11.2",
    "version": "2.0"
  },
  "bufferViews": [
    {
      "buffer": 0,
      "byteLength": 3535488,
      "byteOffset": 0,
      "name": "floatBufferViews",
      "target": 34963
    },
    {
      "buffer": 0,
      "byteLength": 3582720,
      "byteOffset": 3535488,
      "byteStride": 12,
      "name": "floatBufferViews",
      "target": 34962
    }
  ],
  "buffers": [
    {
      "byteLength": 7118208,
      "uri": "scene.bin"
    }
  ],
  "materials": [
    {
      "doubleSided": true,
      "emissiveFactor": [
        0,
        0,
        0
      ],
      "name": "AppC01",
      "pbrMetallicRoughness": {
        "baseColorFactor": [
          0.274509,
          0.66666599999999998,
          0.95686199999999999,
          1
        ],
        "metallicFactor": 0,
        "roughnessFactor": 0.20000000000000001
      }
    },
    {
      "doubleSided": true,
      "emissiveFactor": [
        0,
        0,
        0
      ],
      "name": "App3F1",
      "pbrMetallicRoughness": {
        "baseColorFactor": [
          0.72156799999999999,
          0.72156799999999999,
          0.72156799999999999,
          1
        ],
        "metallicFactor": 0,
        "roughnessFactor": 0.20000000000000001
      }
    },
    {
      "doubleSided": true,
      "emissiveFactor": [
        0,
        0,
        0
      ],
      "name": "App9B3",
      "pbrMetallicRoughness": {
        "baseColorFactor": [
          0.623529,
          0.94901899999999995,
          0.623529,
          1
        ],
        "metallicFactor": 0,
        "roughnessFactor": 0.20000000000000001
      }
    },
    {
      "doubleSided": true,
      "emissiveFactor": [
        0,
        0,
        0
      ],
      "name": "AppE71",
      "pbrMetallicRoughness": {
        "baseColorFactor": [
          0.94117600000000001,
          0.94117600000000001,
          0.94117600000000001,
          1
        ],
        "metallicFactor": 0,
        "roughnessFactor": 0.20000000000000001
      }
    },
    {
      "doubleSided": true,
      "emissiveFactor": [
        0,
        0,
        0
      ],
      "name": "App7B3",
      "pbrMetallicRoughness": {
        "baseColorFactor": [
          0.95294100000000004,
          0.44705800000000001,
          0.44705800000000001,
          1
        ],
        "metallicFactor": 0,
        "roughnessFactor": 0.20000000000000001
      }
    }
  ],
  "meshes": [
    {
      "primitives": [
        {
          "attributes": {
            "NORMAL": 1,
            "POSITION": 0
          },
          "indices": 2,
          "material": 4,
          "mode": 4
        }
      ]
    },
    {
      "primitives": [
        {
          "attributes": {
            "NORMAL": 4,
            "POSITION": 3
          },
          "indices": 5,
          "material": 1,
          "mode": 4
        }
      ]
    },
    {
      "primitives": [
        {
          "attributes": {
            "NORMAL": 7,
            "POSITION": 6
          },
          "indices": 8,
          "material": 1,
          "mode": 4
        }
      ]
    },
    {
      "primitives": [
        {
          "attributes": {
            "NORMAL": 10,
            "POSITION": 9
          },
          "indices": 11,
          "material": 1,
          "mode": 4
        }
      ]
    },
    {
      "primitives": [
        {
          "attributes": {
            "NORMAL": 13,
            "POSITION": 12
          },
          "indices": 14,
          "material": 2,
          "mode": 4
        }
      ]
    },
    {
      "primitives": [
        {
          "attributes": {
            "NORMAL": 16,
            "POSITION": 15
          },
          "indices": 17,
          "material": 2,
          "mode": 4
        }
      ]
    },
    {
      "primitives": [
        {
          "attributes": {
            "NORMAL": 19,
            "POSITION": 18
          },
          "indices": 20,
          "material": 2,
          "mode": 4
        }
      ]
    },
    {
      "primitives": [
        {
          "attributes": {
            "NORMAL": 22,
            "POSITION": 21
          },
          "indices": 23,
          "material": 2,
          "mode": 4
        }
      ]
    },
    {
      "primitives": [
        {
          "attributes": {
            "NORMAL": 25,
            "POSITION": 24
          },
          "indices": 26,
          "material": 2,
          "mode": 4
        }
      ]
    },
    {
      "primitives": [
        {
          "attributes": {
            "NORMAL": 28,
            "POSITION": 27
          },
          "indices": 29,
          "material": 0,
          "mode": 4
        }
      ]
    },
    {
      "primitives": [
        {
          "attributes": {
            "NORMAL": 31,
            "POSITION": 30
          },
          "indices": 32,
          "material": 0,
          "mode": 4
        }
      ]
    },
    {
      "primitives": [
        {
          "attributes": {
            "NORMAL": 34,
            "POSITION": 33
          },
          "indices": 35,
          "material": 0,
          "mode": 4
        }
      ]
    },
    {
      "primitives": [
        {
          "attributes": {
            "NORMAL": 37,
            "POSITION": 36
          },
          "indices": 38,
          "material": 0,
          "mode": 4
        }
      ]
    },
    {
      "primitives": [
        {
          "attributes": {
            "NORMAL": 40,
            "POSITION": 39
          },
          "indices": 41,
          "material": 0,
          "mode": 4
        }
      ]
    },
    {
      "primitives": [
        {
          "attributes": {
            "NORMAL": 43,
            "POSITION": 42
          },
          "indices": 44,
          "material": 0,
          "mode": 4
        }
      ]
    },
    {
      "primitives": [
        {
          "attributes": {
            "NORMAL": 46,
            "POSITION": 45
          },
          "indices": 47,
          "material": 3,
          "mode": 4
        }
      ]
    },
    {
      "primitives": [
        {
          "attributes": {
            "NORMAL": 49,
            "POSITION": 48
          },
          "indices": 50,
          "material": 3,
          "mode": 4
        }
      ]
    },
    {
      "primitives": [
        {
          "attributes": {
            "NORMAL": 52,
            "POSITION": 51
          },
          "indices": 53,
          "material": 3,
          "mode": 4
        }
      ]
    }
  ],
  "nodes": [
    {
      "children": [
        1
      ],
      "name": "RootNode (gltf orientation matrix)",
      "rotation": [
        -0.70710678118654746,
        -0,
        -0,
        0.70710678118654757
      ]
    },
    {
      "children": [
        2
      ],
      "matrix": [
        1,
        0,
        0,
        0,
        0,
        0,
        -1,
        0,
        0,
        1,
        0,
        0,
        0,
        -0.60517966747283936,
        -0.60517972707748413,
        1
      ],
      "name": "RootNode (model correction matrix)"
    },
    {
      "children": [
        3,
        4,
        5,
        6,
        7,
        8,
        9,
        10,
        11,
        12,
        13,
        14,
        15,
        16,
        17,
        18,
        19,
        20
      ],
      "name": "DNA.obj.cleaner.materialmerger.gles"
    },
    {
      "mesh": 0,
      "name": ""
    },
    {
      "mesh": 1,
      "name": ""
    },
    {
      "mesh": 2,
      "name": ""
    },
    {
      "mesh": 3,
      "name": ""
    },
    {
      "mesh": 4,
      "name": ""
    },
    {
      "mesh": 5,
      "name": ""
    },
    {
      "mesh": 6,
      "name": ""
    },
    {
      "mesh": 7,
      "name": ""
    },
    {
      "mesh": 8,
      "name": ""
    },
    {
      "mesh": 9,
      "name": ""
    },
    {
      "mesh": 10,
      "name": ""
    },
    {
      "mesh": 11,
      "name": ""
    },
    {
      "mesh": 12,
      "name": ""
    },
    {
      "mesh": 13,
      "name": ""
    },
    {
      "mesh": 14,
      "name": ""
    },
    {
      "mesh": 15,
      "name": ""
    },
    {
      "mesh": 16,
      "name": ""
    },
    {
      "mesh": 17,
      "name": ""
    }
  ],
  "scene": 0,
  "scenes": [
    {
      "name": "OSG_Scene",
      "nodes": [
        0
      ]
    }
  ]
}

